<svg width="25" height="24" viewBox="0 0 25 24" fill="none" xmlns="http://www.w3.org/2000/svg">
<g clipPath="url(#clip0_95_6851)">
<path d="M8.30016 21.75C17.3545 21.75 22.3083 14.2467 22.3083 7.74186C22.3083 7.53092 22.3036 7.3153 22.2942 7.10436C23.2579 6.40746 24.0895 5.54425 24.75 4.5553C23.8525 4.9546 22.8996 5.21538 21.9239 5.32874C22.9513 4.71291 23.7205 3.74547 24.0891 2.60577C23.1226 3.17856 22.0656 3.58261 20.9634 3.80061C20.2208 3.01156 19.239 2.48912 18.1697 2.31405C17.1004 2.13899 16.0032 2.32105 15.0477 2.8321C14.0923 3.34314 13.3318 4.15471 12.8838 5.14131C12.4359 6.12792 12.3254 7.23462 12.5695 8.2903C10.6125 8.19209 8.69794 7.6837 6.94998 6.7981C5.20203 5.91249 3.65969 4.66944 2.42297 3.14952C1.7944 4.23324 1.60206 5.51565 1.88503 6.73609C2.168 7.95654 2.90506 9.02345 3.94641 9.71999C3.16463 9.69517 2.39998 9.48468 1.71563 9.10592V9.16686C1.71492 10.3041 2.1081 11.4066 2.82831 12.2868C3.54852 13.167 4.55132 13.7706 5.66625 13.995C4.94206 14.1931 4.18198 14.222 3.44484 14.0794C3.75945 15.0574 4.37157 15.9129 5.19577 16.5263C6.01997 17.1398 7.01512 17.4806 8.04234 17.5012C6.29842 18.8711 4.14417 19.6141 1.92656 19.6106C1.53329 19.61 1.1404 19.5859 0.75 19.5384C3.00286 20.9837 5.62353 21.7514 8.30016 21.75Z" fill="white"/>
</g>
<defs>
<clipPath id="clip0_95_6851">
<rect width="24" height="24" fill="white" transform="translate(0.75)"/>
</clipPath>
</defs>
</svg>
